# xmcd
#
# Track frame offsets:
#	150
#	18065
#	33958
#	46111
#	61098
#	77657
#	93442
#	109462
#	123171
#	138507
#	152367
#	168477
#	187001
#	207855
#	223928
#	236243
#
# Disc length: 3538 seconds
#
# Revision: 0
# Processed by: cddbd v1.5.2PL0 Copyright (c) Steve Scherf et al.
# Submitted via: audiograbber 1.83.01
#
DISCID=d30dd010
DTITLE=VA - Hits 'n' More - The Ultimate 70's Collection CD 1
DYEAR=1900
DGENRE=Oldies
TTITLE0=Smokie - If You Think You Know How To Love Me
TTITLE1=Jerry, Mungo - In The Summertime
TTITLE2=Kincade - Dreams Are Ten A Penny
TTITLE3=Charles, Tina - I Love To Love
TTITLE4=Christie, Tony - I Did What I Did For Maria
TTITLE5=Windows, The - One And One Is One
TTITLE6=First Class - Bobby Dazzler
TTITLE7=Petry, Wolfgang - Baby I Love You
TTITLE8=Christian, Dennie - Beer Barrel Polka (Englisch)
TTITLE9=Phil and John - Baby How Are You
TTITLE10=Gaynor, Gloria - Reach Out (I`ll Be There)
TTITLE11=Les Humpries Singers - Mexico
TTITLE12=Taco - Puttin' On The Ritz
TTITLE13=Timeriders II - Rock'n'Roll - Part II
TTITLE14=Gerodie - All Because Of You
TTITLE15=Think Pink - Money
EXTD=
EXTT0=
EXTT1=
EXTT2=
EXTT3=
EXTT4=
EXTT5=
EXTT6=
EXTT7=
EXTT8=
EXTT9=
EXTT10=
EXTT11=
EXTT12=
EXTT13=
EXTT14=
EXTT15=
PLAYORDER=
